<?xml version="1.0" encoding="UTF-8"?>
<svg width="22px" height="16px" viewBox="0 0 22 16" version="1.1" xmlns="http://www.w3.org/2000/svg" xmlns:xlink="http://www.w3.org/1999/xlink">
    <!-- Generator: Sketch 50.2 (55047) - http://www.bohemiancoding.com/sketch -->
    <title>app-scout-icon</title>
    <desc>Created with Sketch.</desc>
    <defs></defs>
    <g id="Page-1" stroke="#2586FA" stroke-width="1" fill="none" fill-rule="evenodd">
        <g id="eye" fill="#2586FA" fill-rule="nonzero">
            <g id="Group">
                <path d="M11.0018622,1.7352937 L11.0018622,0.9852937 C15.3961686,0.9852937 19.3242803,3.56528995 21.1454283,7.51556044 C21.2877859,7.82598087 21.2877859,8.18396624 21.1448016,8.48995596 C19.3242803,12.4388637 15.3961686,15.0188599 11.0018622,15.0188599 C6.60755582,15.0188599 2.67944407,12.4388637 0.858296136,8.48859316 C0.71593851,8.17817273 0.71593851,7.82018736 0.858922758,7.51419764 C2.67944407,3.56528995 6.60755582,0.9852937 11.0018622,0.9852937 L11.0018622,1.7352937 Z M11.0018622,1.7352937 L11.0018622,2.4852937 C7.2532145,2.4852937 3.87372635,4.65636157 2.26588542,8.00202031 C3.87156347,11.3461675 7.25200733,13.5188599 11.0018622,13.5188599 C14.7505099,13.5188599 18.2786174,11.347679 19.8864583,8.00202031 C18.2807803,4.65787314 14.7517171,2.4852937 11.0018622,2.4852937 L11.0018622,1.7352937 Z" id="Path-Copy"></path>
                <path d="M9.39615508,11.1401518 L7.22060021,14.1859286 L6,13.3140714 L8.15194948,10.3013421 C7.3553635,9.52888352 6.8603001,8.44725588 6.8603001,7.25 C6.8603001,4.90278981 8.76308992,3 11.1103001,3 C13.4575103,3 15.3603001,4.90278981 15.3603001,7.25 C15.3603001,9.59721019 13.4575103,11.5 11.1103001,11.5 C10.5003815,11.5 9.92047067,11.3715215 9.39615508,11.1401518 Z M11.1103001,10 C12.6290832,10 13.8603001,8.76878306 13.8603001,7.25 C13.8603001,5.73121694 12.6290832,4.5 11.1103001,4.5 C9.59151704,4.5 8.3603001,5.73121694 8.3603001,7.25 C8.3603001,8.76878306 9.59151704,10 11.1103001,10 Z" id="Combined-Shape"></path>
            </g>
        </g>
    </g>
</svg>